<svg version="1.1" id="Layer_1" xmlns="http://www.w3.org/2000/svg" xmlns:xlink="http://www.w3.org/1999/xlink" x="0px" y="0px"
	 width="100%" viewBox="0 0 400 400" enable-background="new 0 0 400 400" xml:space="preserve">
<path fill="#000000" opacity="1.000000" stroke="none" 
	d="
M192.531342,1.000000 
	C187.581116,3.797048 181.588394,2.384826 175.894302,3.158312 
	C138.682251,8.213210 105.266823,22.215137 76.191231,45.790970 
	C38.473061,76.374596 14.775239,115.730682 5.450833,163.514908 
	C3.895399,171.485947 1.969567,179.449402 2.428506,187.695663 
	C2.502254,189.020782 2.368991,190.368835 1.265856,191.757339 
	C1.000000,128.406113 1.000000,64.812225 1.000000,1.000000 
	C64.687393,1.000000 128.375046,1.000000 192.531342,1.000000 
z"/>
<path fill="#000000" opacity="1.000000" stroke="none" 
	d="
M209.468658,401.000000 
	C213.943787,398.312042 219.446381,399.714630 224.662476,398.968536 
	C292.315552,389.291321 343.081451,354.795441 376.450165,295.275665 
	C390.354309,270.474762 398.134094,243.555359 399.687256,215.000565 
	C399.748749,213.869812 400.198486,212.760178 400.733643,211.320343 
	C401.000000,274.260742 401.000000,337.521484 401.000000,401.000000 
	C337.312592,401.000000 273.624969,401.000000 209.468658,401.000000 
z"/>
<path fill="#000000" opacity="1.000000" stroke="none" 
	d="
M1.000000,210.468658 
	C3.837373,215.059631 2.335302,220.732178 3.116095,226.088638 
	C10.305457,275.409698 31.924599,316.848541 69.187973,350.151764 
	C92.981224,371.416382 120.369385,385.836548 151.072739,393.928406 
	C163.100098,397.098236 175.344040,399.672028 187.932816,399.691711 
	C189.386566,399.693970 190.839447,400.256653 192.646362,400.779755 
	C129.073166,401.000000 65.146324,401.000000 1.000000,401.000000 
	C1.000000,337.645935 1.000000,274.291626 1.000000,210.468658 
z"/>
<path fill="#000000" opacity="1.000000" stroke="none" 
	d="
M401.000000,190.531342 
	C398.363220,186.431534 399.542175,181.255310 398.875244,176.399506 
	C392.083466,126.950691 370.470001,85.465309 333.232208,52.117867 
	C310.259003,31.544752 283.809357,17.360401 254.251221,9.003156 
	C241.139008,5.295813 227.748810,2.690325 214.030014,2.309894 
	C212.569275,2.269387 211.120865,1.784071 209.333374,1.252552 
	C272.926636,1.000000 336.853271,1.000000 401.000000,1.000000 
	C401.000000,64.020721 401.000000,127.041702 401.000000,190.531342 
z"/>
<path fill="#000000" opacity="1.000000" stroke="none" 
	d="
M278.367249,185.655487 
	C279.261932,191.371735 282.088531,193.228287 287.672455,193.127472 
	C298.321960,192.935150 304.448334,199.455032 305.384216,209.951477 
	C306.422791,221.599869 305.866058,233.245758 306.052521,244.892654 
	C306.132446,249.881882 304.276917,251.885925 299.276276,251.354523 
	C296.311096,251.039398 293.255707,251.555389 290.294922,251.220291 
	C285.018768,250.623169 282.553650,252.843094 281.197235,257.934753 
	C277.403778,272.174408 261.121155,278.081116 248.844467,269.920288 
	C244.487350,267.023926 241.706894,262.918823 240.655243,257.818054 
	C239.688614,253.129776 237.146835,251.190552 232.279587,251.270844 
	C219.791428,251.476852 207.297394,251.313324 194.805756,251.330307 
	C190.127274,251.336655 186.591736,251.648941 185.583527,258.108948 
	C184.103119,267.594666 175.803879,273.250183 166.041138,273.309753 
	C155.465439,273.374298 147.381012,267.772491 145.196564,257.583832 
	C144.055695,252.262527 141.089493,251.426620 136.793732,251.323502 
	C133.473999,251.243790 130.132385,251.622086 126.845993,250.774002 
	C120.962006,249.255524 117.692093,245.394989 117.679710,239.325653 
	C117.612427,206.347534 117.590240,173.369202 117.633698,140.391052 
	C117.643005,133.325577 122.103104,128.693481 129.109894,128.673950 
	C161.588333,128.583435 194.067215,128.658005 226.545776,128.591476 
	C229.861832,128.584686 231.653397,129.614563 231.278656,133.168488 
	C231.243927,133.497864 231.274872,133.834213 231.276016,134.167313 
	C231.323502,147.964310 229.474304,146.667145 243.794479,146.735275 
	C247.625198,146.753494 251.475388,146.970963 255.282715,146.669098 
	C262.095947,146.128876 266.810089,149.255585 268.948120,155.280334 
	C272.445831,165.136459 275.210693,175.252686 278.367249,185.655487 
M131.336914,233.287277 
	C131.466461,235.617401 130.771591,237.160904 128.048309,237.161087 
	C126.109703,237.161240 124.218018,237.621735 124.271271,240.119904 
	C124.324524,242.617889 125.886833,244.248825 128.201752,244.640945 
	C131.309296,245.167343 134.488464,245.362732 137.645203,245.484741 
	C142.020752,245.653885 145.298935,244.391068 148.020340,240.234833 
	C156.398483,227.439316 176.602264,228.257217 184.052048,241.503723 
	C185.492142,244.064377 187.102692,245.070267 189.921295,245.047119 
	C199.420349,244.969070 208.920731,245.072220 218.420532,245.058334 
	C224.953659,245.048798 225.629196,244.421066 225.634750,237.935257 
	C225.662537,205.455460 225.583084,172.975357 225.718964,140.496109 
	C225.738785,135.759018 224.164459,134.027893 219.342087,134.089966 
	C202.678238,134.304474 186.009933,134.168152 169.343338,134.177124 
	C156.843399,134.183853 144.343307,134.250046 131.843613,134.202927 
	C127.459961,134.186401 123.838112,135.770370 123.523628,140.303116 
	C123.014122,147.646667 123.386452,155.051422 123.386452,162.430328 
	C127.277878,155.611435 132.861404,153.246216 140.028320,154.104645 
	C141.955978,154.335526 144.351227,154.466537 144.991837,156.774872 
	C145.584045,158.908798 144.892441,160.956680 143.025482,162.470215 
	C142.388504,162.120956 141.815048,161.996094 141.568573,161.643005 
	C137.755859,156.181366 133.707428,156.325912 130.631744,162.125183 
	C128.688202,165.789810 128.776825,169.434723 130.939682,173.042831 
	C132.539719,175.712051 134.798370,177.838913 137.833969,176.488770 
	C141.442886,174.883621 139.084473,172.040878 138.288315,169.659866 
	C138.209564,169.424377 138.482071,169.071426 138.646881,168.622177 
	C141.338669,167.629532 144.021561,167.805008 147.162170,169.075928 
	C145.686600,171.165833 144.960129,173.268661 145.012863,175.612518 
	C145.050156,177.270737 144.046677,178.329041 142.625916,179.128555 
	C137.392166,182.073853 129.596756,180.272842 126.057930,175.306793 
	C125.376259,174.350204 125.250885,172.797638 123.241768,172.485092 
	C123.241768,186.880051 123.234917,201.022980 123.250122,215.165894 
	C123.252098,217.009659 123.933411,218.767395 125.986572,218.649246 
	C131.644699,218.323639 132.208435,221.375351 131.427307,225.878174 
	C131.062210,227.982819 131.350784,230.200836 131.336914,233.287277 
M240.949890,152.393097 
	C231.364746,153.403564 231.348938,153.403564 231.345306,163.270157 
	C231.336197,188.065872 231.316071,212.861664 231.381439,237.657196 
	C231.388519,240.341309 230.671097,243.756775 234.387604,244.729156 
	C237.862503,245.638336 240.698334,244.796234 242.744888,241.220703 
	C250.615067,227.470642 272.296356,228.201050 279.358704,241.461014 
	C280.213409,243.065765 281.067566,244.843872 283.271545,244.877838 
	C287.760559,244.947006 292.251251,244.980698 296.740387,244.937454 
	C299.027588,244.915451 299.937805,243.508499 299.905853,241.336090 
	C299.876495,239.337677 299.390686,237.317795 297.061829,237.423386 
	C291.461273,237.677292 291.459717,234.178986 291.687714,230.217545 
	C291.821289,227.896378 291.741364,225.557922 291.660400,223.230637 
	C291.561493,220.387939 292.697632,218.704453 295.704071,218.868240 
	C299.626862,219.081955 300.439484,217.028290 300.211029,213.555542 
	C299.500397,202.753159 294.938293,198.353104 284.118561,198.360672 
	C275.587311,198.366638 275.766113,198.318741 273.461914,189.718063 
	C270.881714,180.086990 268.044128,170.520477 265.107880,160.990784 
	C263.213318,154.841934 259.714417,152.449738 253.351517,152.386139 
	C249.524368,152.347885 245.696564,152.373871 240.949890,152.393097 
M276.508484,251.075165 
	C275.938629,249.517746 275.447510,247.925980 274.785583,246.408707 
	C271.488708,238.851471 261.840240,235.110794 254.691010,238.579941 
	C246.335281,242.634552 243.105148,252.174072 247.479446,259.877686 
	C251.095154,266.245300 257.864990,269.149811 264.880890,267.343567 
	C271.667694,265.596283 276.263550,259.516510 276.508484,251.075165 
M175.996765,263.518829 
	C183.321426,255.317993 182.049973,244.333603 173.184280,239.221161 
	C166.794357,235.536392 158.112289,237.316879 153.424042,243.273529 
	C148.767807,249.189499 149.190598,257.409790 154.431610,262.863098 
	C160.425354,269.099640 168.057526,269.520721 175.996765,263.518829 
z"/>
<path fill="#000000" opacity="1.000000" stroke="none" 
	d="
M146.611923,354.544006 
	C112.807503,342.419464 86.238098,321.656006 66.523521,291.970703 
	C101.145973,333.924347 144.567413,358.300995 199.775528,358.695801 
	C254.956940,359.090424 298.729858,335.421539 334.205017,292.760315 
	C330.690125,304.421265 303.533752,330.496918 284.223969,341.381287 
	C240.389160,366.089630 194.609665,369.678741 146.611923,354.544006 
z"/>
<path fill="#000000" opacity="1.000000" stroke="none" 
	d="
M193.079269,36.679787 
	C214.946991,35.568329 235.804810,38.763767 255.849167,45.890369 
	C283.184540,55.609245 306.542969,71.519310 325.385895,93.765205 
	C326.639343,95.244995 328.157440,96.656830 328.547516,100.344574 
	C292.020935,60.707001 248.003662,39.498787 194.948578,41.608265 
	C142.035019,43.712120 99.474213,67.436119 66.812057,109.845627 
	C65.736061,106.907555 67.210266,105.613655 68.216911,104.249229 
	C89.227867,75.770660 116.548187,55.789639 150.072662,44.652622 
	C163.792343,40.094868 178.038071,37.310562 193.079269,36.679787 
z"/>
<path fill="#000000" opacity="1.000000" stroke="none" 
	d="
M129.771362,292.217010 
	C180.060257,324.686920 229.345932,321.508575 278.326660,288.911865 
	C271.571716,300.606781 237.725693,317.958679 210.380859,319.421173 
	C177.359268,321.187225 148.364914,312.159332 123.841034,289.850800 
	C126.343895,289.118286 127.777527,290.868439 129.771362,292.217010 
z"/>
<path fill="#000000" opacity="1.000000" stroke="none" 
	d="
M252.432343,96.563889 
	C235.360016,89.405037 218.130081,84.924782 199.806671,85.280327 
	C173.896957,85.783081 150.574173,93.979912 129.269241,108.422379 
	C127.896759,109.352783 126.531845,110.295799 125.130280,111.180443 
	C124.898483,111.326752 124.495010,111.201050 124.164040,111.201050 
	C126.565926,101.580894 163.117325,84.137573 184.878082,81.631615 
	C219.374359,77.659050 249.990402,85.984558 276.202728,108.933220 
	C268.184357,105.427971 260.947205,100.200821 252.432343,96.563889 
z"/>
<path fill="#000000" opacity="1.000000" stroke="none" 
	d="
M250.496033,322.298798 
	C254.775253,325.427795 255.321548,328.779266 252.507385,332.401154 
	C251.241714,334.030121 249.661667,335.395874 247.532547,335.055481 
	C245.182007,334.679688 245.437500,332.370514 245.136871,330.687958 
	C244.737625,328.453491 244.643127,326.161469 242.914474,324.481934 
	C245.217194,322.068298 247.629944,322.013641 250.496033,322.298798 
z"/>
<path fill="#000000" opacity="1.000000" stroke="none" 
	d="
M138.266022,327.895752 
	C135.266525,328.187103 132.467453,327.889618 131.549026,324.857391 
	C130.462875,321.271301 133.363281,318.880707 135.340576,316.735535 
	C138.722061,313.066956 139.697327,320.247223 144.069580,317.700928 
	C141.686081,321.977966 140.103424,324.817963 138.266022,327.895752 
z"/>
<path fill="#000000" opacity="1.000000" stroke="none" 
	d="
M275.905426,322.588928 
	C274.615448,324.952850 273.045502,326.530945 270.623169,326.174591 
	C267.829346,325.763611 268.107025,323.116241 267.520050,321.137268 
	C267.144348,319.870483 266.690186,318.623993 266.212250,317.391266 
	C265.576447,315.751373 265.841827,314.475037 267.552948,313.719147 
	C269.265930,312.962402 271.555695,312.056458 272.505829,313.917603 
	C273.857178,316.564728 277.048706,318.558197 275.905426,322.588928 
z"/>
<path fill="#000000" opacity="1.000000" stroke="none" 
	d="
M223.493286,328.094849 
	C227.264771,327.374542 229.732468,328.547333 230.818054,331.911011 
	C231.801300,334.957581 230.609573,337.426605 228.284073,339.356750 
	C226.441956,340.885742 224.262878,341.115021 222.342773,339.668945 
	C219.824936,337.772644 219.249359,335.163818 220.308441,332.157349 
	C220.872040,330.557343 221.533569,329.094208 223.493286,328.094849 
M225.414688,337.233917 
	C226.496292,337.008148 227.101852,336.257050 227.429276,335.283997 
	C227.810898,334.149933 227.899750,333.009155 226.900635,332.100586 
	C226.252289,331.510986 225.466431,331.259583 224.646103,331.672913 
	C223.419662,332.290924 223.321671,333.433258 223.407288,334.633667 
	C223.481735,335.677338 223.893433,336.524567 225.414688,337.233917 
z"/>
<path fill="#000000" opacity="1.000000" stroke="none" 
	d="
M236.466583,337.769287 
	C233.479401,334.825653 234.167679,330.973450 233.765015,327.541504 
	C233.479767,325.110291 236.310486,324.815277 238.265839,324.906036 
	C240.319336,325.001373 241.748520,326.326141 241.501007,328.503235 
	C241.341568,329.905640 240.534546,331.234436 240.022614,332.592896 
	C240.196320,334.229309 242.637558,334.095703 242.628479,336.100647 
	C241.088074,337.807281 238.313202,335.741821 236.466583,337.769287 
z"/>
<path fill="#000000" opacity="1.000000" stroke="none" 
	d="
M143.358429,326.359863 
	C144.343903,324.614319 145.235947,323.214081 145.909393,321.715607 
	C146.508698,320.382141 147.164764,319.297058 148.825989,319.824310 
	C150.555298,320.373199 152.392212,320.923004 153.040939,322.903381 
	C153.566330,324.507233 152.914139,325.722229 151.584183,326.759033 
	C148.720490,328.991577 148.754532,329.035248 149.130707,332.729065 
	C146.627197,333.010315 145.204712,329.567780 142.788025,331.064972 
	C141.380875,329.171356 142.587967,327.963013 143.358429,326.359863 
z"/>
<path fill="#000000" opacity="1.000000" stroke="none" 
	d="
M121.196426,309.243042 
	C120.335281,308.962738 119.123222,308.600494 119.210869,308.995728 
	C119.863609,311.939392 118.167046,312.709259 116.000443,312.423462 
	C115.475853,314.620300 117.965157,315.270111 116.988922,317.313873 
	C114.083427,317.252655 111.935570,315.782043 109.944534,313.647400 
	C111.489235,310.238403 114.407997,308.188354 116.739159,305.702454 
	C118.191116,304.154083 123.434769,306.159790 123.626305,308.236450 
	C123.754883,309.630493 122.476883,309.515778 121.196426,309.243042 
z"/>
<path fill="#000000" opacity="1.000000" stroke="none" 
	d="
M207.608917,57.234322 
	C207.630249,59.527748 206.082962,61.282513 207.384155,63.595348 
	C208.615051,65.783257 206.998383,67.370735 205.109070,68.318626 
	C203.144409,69.304314 201.219376,68.726212 199.594513,67.421562 
	C198.581833,66.608429 198.365692,65.331497 199.242508,64.343666 
	C200.787033,62.603573 201.709473,65.297203 203.447754,65.033867 
	C203.461166,62.481358 198.916168,60.879288 201.587234,57.922531 
	C203.172485,56.167706 205.210251,55.746277 207.608917,57.234322 
z"/>
<path fill="#000000" opacity="1.000000" stroke="none" 
	d="
M113.030136,303.561218 
	C111.968742,303.681183 111.169785,303.629059 109.945808,303.549164 
	C110.495140,306.278961 110.533638,309.097260 107.011444,309.960327 
	C104.832703,310.494202 103.026703,309.711975 101.911308,307.763336 
	C100.873047,305.949463 100.155296,304.060699 102.690727,302.888702 
	C105.095726,302.924286 103.402145,306.252960 106.056282,306.273102 
	C107.461151,304.115387 103.926140,298.395111 110.192047,299.322418 
	C112.192101,299.618378 114.887939,300.046936 113.030136,303.561218 
z"/>
<path fill="#000000" opacity="1.000000" stroke="none" 
	d="
M257.444916,328.214294 
	C256.869385,324.997955 258.110016,322.361694 258.432648,319.605896 
	C258.550323,318.600616 259.059631,317.646606 260.254517,317.590027 
	C261.411346,317.535248 261.968658,318.364319 262.342316,319.348938 
	C263.442841,322.248901 264.556305,325.143951 265.953003,328.794403 
	C262.613129,327.830750 260.277649,328.382019 259.523834,331.384918 
	C257.585388,330.984772 257.809265,329.636169 257.444916,328.214294 
z"/>
<path fill="#000000" opacity="1.000000" stroke="none" 
	d="
M286.883484,310.938660 
	C283.514648,303.540649 283.703979,302.986755 290.903015,300.888031 
	C287.440979,304.420380 292.985016,306.917053 290.539520,309.848816 
	C292.155334,311.475525 293.652679,309.290436 295.287811,310.508667 
	C294.533844,313.049805 292.606293,314.701019 290.257843,315.072723 
	C287.952850,315.437622 287.954529,312.704651 286.883484,310.938660 
z"/>
<path fill="#000000" opacity="1.000000" stroke="none" 
	d="
M194.929169,337.473419 
	C194.856674,339.004303 195.239365,340.234131 193.827454,341.396606 
	C191.859146,339.550354 189.546112,339.108734 187.230423,341.616577 
	C186.897263,335.536621 190.170441,330.549683 194.609848,329.816681 
	C196.049759,332.164764 194.796616,334.653076 194.929169,337.473419 
z"/>
<path fill="#000000" opacity="1.000000" stroke="none" 
	d="
M160.507629,323.639954 
	C162.105789,324.072876 163.435059,324.298309 164.632111,325.921051 
	C160.575134,325.932068 161.030914,330.662537 157.905289,331.307434 
	C157.712234,333.588715 160.168503,333.438995 160.493164,335.149719 
	C160.255524,335.403259 159.952225,336.011139 159.638367,336.016602 
	C157.162949,336.060059 154.424133,336.113922 153.164124,333.574371 
	C152.194397,331.619873 157.601868,324.272888 160.507629,323.639954 
z"/>
<path fill="#000000" opacity="1.000000" stroke="none" 
	d="
M125.223984,323.066223 
	C121.228981,321.618713 120.668602,318.802826 122.088882,315.757507 
	C123.643600,312.423950 126.646667,311.090942 130.333130,311.692322 
	C131.863342,311.941956 132.655350,312.991516 132.427475,314.536865 
	C132.175018,316.248810 130.809296,316.776764 129.472382,316.215363 
	C126.903984,315.136871 125.359940,315.604523 124.788994,318.325562 
	C125.230232,320.666321 128.023743,319.036407 128.725891,321.012634 
	C128.651947,322.953461 127.118950,323.021912 125.223984,323.066223 
z"/>
<path fill="#000000" opacity="1.000000" stroke="none" 
	d="
M175.515930,339.992340 
	C169.167465,338.821167 169.023026,338.480896 172.009033,333.114288 
	C172.484955,332.259003 172.770493,331.295227 173.119049,330.372162 
	C173.692169,328.854492 174.618149,327.550751 176.379562,327.987396 
	C178.566986,328.529694 178.493301,330.259521 177.798981,331.969116 
	C176.748276,334.556305 179.339661,338.010010 175.515930,339.992340 
z"/>
<path fill="#000000" opacity="1.000000" stroke="none" 
	d="
M195.354797,64.321175 
	C195.331711,65.841629 196.140106,66.967903 195.175583,68.453163 
	C193.018234,67.506927 190.616196,66.662895 188.748642,69.358582 
	C187.587402,66.090607 189.889603,58.365009 192.231369,57.145084 
	C194.025131,56.210644 195.132278,56.937885 195.255615,58.934544 
	C195.358215,60.595310 195.314636,62.265110 195.354797,64.321175 
z"/>
<path fill="#000000" opacity="1.000000" stroke="none" 
	d="
M210.268646,340.932831 
	C209.249252,337.039825 211.578201,333.549805 210.075821,330.087463 
	C213.825592,328.443909 213.825592,328.443909 218.752411,329.539612 
	C213.129837,331.109497 215.786652,336.357056 213.147583,339.157928 
	C212.340897,340.014099 212.498505,341.916779 210.268646,340.932831 
z"/>
<path fill="#000000" opacity="1.000000" stroke="none" 
	d="
M201.999161,329.582764 
	C204.126816,329.749268 206.170013,328.527649 207.841293,330.329620 
	C202.239410,332.137817 204.379089,338.971954 200.080017,341.674927 
	C198.693680,341.641327 198.232101,340.586060 198.511642,339.342041 
	C199.160950,336.452454 199.951355,333.622009 199.735077,330.586670 
	C199.670914,329.686188 200.868546,329.606171 201.999161,329.582764 
z"/>
<path fill="#000000" opacity="1.000000" stroke="none" 
	d="
M280.695190,312.326782 
	C280.962219,315.853241 283.735199,316.087738 286.189301,316.885071 
	C285.244324,319.473938 283.451233,320.700775 281.263245,320.605743 
	C278.923523,320.504059 278.920624,318.143402 278.541534,316.430206 
	C277.997864,313.973267 276.050751,311.710632 277.191406,308.947144 
	C279.780762,308.626801 279.847900,310.647003 280.695190,312.326782 
z"/>
<path fill="#000000" opacity="1.000000" stroke="none" 
	d="
M184.488922,59.040619 
	C183.353424,59.769257 181.180054,59.681690 181.771362,60.969578 
	C183.589752,64.930023 179.953598,66.981987 178.902496,70.095901 
	C177.117828,66.527527 177.479675,62.655533 177.908691,59.040031 
	C178.156036,56.955700 181.098511,57.201466 182.932785,56.816093 
	C184.243073,56.540810 185.817902,56.709862 184.488922,59.040619 
z"/>
<path fill="#000000" opacity="1.000000" stroke="none" 
	d="
M220.105103,58.325264 
	C215.141983,60.254810 216.737778,66.393661 212.903351,69.726082 
	C209.932236,65.455933 215.431595,61.177166 211.796188,57.534416 
	C215.020645,56.173431 217.466003,57.498398 220.105103,58.325264 
z"/>
<path fill="#000000" opacity="1.000000" stroke="none" 
	d="
M197.894974,199.343338 
	C206.145538,199.217133 214.010803,199.217133 222.383087,199.217133 
	C222.027634,207.683884 224.292236,215.497147 217.834457,222.106567 
	C215.933411,224.052246 214.531860,225.445267 211.765457,225.423370 
	C201.186890,225.339645 190.606583,225.303986 180.028625,225.413834 
	C176.796356,225.447403 175.991013,224.126541 175.589905,221.022354 
	C174.536392,212.869354 178.155731,207.014740 183.706451,201.762299 
	C185.272537,200.280380 186.879593,199.550934 189.031403,199.609299 
	C191.854156,199.685883 194.683289,199.527100 197.894974,199.343338 
M187.874680,223.549759 
	C189.861069,223.341385 190.647003,222.217270 190.838135,220.245209 
	C191.354996,214.912094 190.270203,214.194641 182.467377,214.165985 
	C179.157349,214.153809 177.254288,214.640854 177.209305,218.717941 
	C177.163528,222.868698 178.794266,224.052887 182.531860,223.645325 
	C184.010834,223.484055 185.520615,223.605133 187.874680,223.549759 
M195.141693,219.094177 
	C195.375565,220.647110 194.650116,222.805786 197.425613,223.004242 
	C197.961044,215.691452 197.961334,215.712540 205.578506,215.606857 
	C207.572449,215.579208 209.563965,215.376160 211.556595,215.253647 
	C207.219070,214.324554 202.951614,214.416351 198.690384,214.293045 
	C195.732895,214.207443 194.944214,215.755615 195.141693,219.094177 
M181.013443,210.948807 
	C184.471558,211.411926 187.946503,212.084183 191.653702,210.433578 
	C185.279510,206.051987 183.768311,206.105789 181.013443,210.948807 
M208.858948,217.460785 
	C207.183746,217.524033 205.158401,216.784454 204.389999,219.803268 
	C206.102127,220.776306 207.865891,221.134888 209.655716,220.011963 
	C210.730804,219.337463 210.433197,218.381226 208.858948,217.460785 
z"/>
<path fill="#000000" opacity="1.000000" stroke="none" 
	d="
M203.978500,157.554443 
	C202.060486,157.920151 200.482635,158.684479 200.541031,160.367142 
	C200.754425,166.517700 198.632889,172.907700 202.541077,178.898087 
	C199.485703,180.362259 196.614410,179.160278 192.946747,179.513321 
	C196.998703,173.980621 195.439896,168.315887 195.550522,162.860809 
	C195.598145,160.512192 195.195694,157.657166 192.138809,157.704285 
	C189.273407,157.748459 189.173996,160.529373 189.287933,162.679001 
	C189.571976,168.038330 187.821686,173.615204 191.190308,178.873505 
	C188.029556,179.704010 185.122116,179.455780 181.614044,179.449524 
	C183.469315,175.736008 186.028931,172.033279 182.557159,168.936600 
	C180.879105,167.439850 177.403076,167.433395 175.601303,169.439713 
	C172.874283,172.476273 174.326324,175.833664 176.691711,179.084183 
	C173.092590,179.808701 170.083633,179.481400 166.903290,179.124695 
	C170.686310,173.007263 170.679031,163.020798 167.060684,155.922409 
	C169.879333,154.225143 172.546234,154.085541 176.763657,155.511032 
	C176.373611,158.402298 171.935501,161.284378 175.746429,164.179474 
	C177.628876,165.609543 181.027145,165.701126 182.838608,164.041718 
	C185.607452,161.505295 183.326324,158.565689 181.958023,155.725174 
	C184.419647,153.574829 187.421631,154.552780 190.021973,154.504211 
	C199.162689,154.333450 208.311066,154.590408 217.456711,154.659927 
	C223.279099,154.704193 223.853012,155.717178 221.097855,161.815109 
	C218.739944,160.215469 217.052002,156.178726 213.365402,158.906540 
	C211.826691,160.045074 211.852783,162.073349 212.797501,163.470322 
	C214.841354,166.492676 216.311798,162.503860 218.468002,162.690704 
	C219.769089,165.173950 219.471725,167.659088 218.733459,170.147110 
	C216.461945,171.111267 214.580536,166.794312 212.922821,169.517075 
	C211.050125,172.592957 212.193665,175.870972 214.922287,178.741440 
	C211.366287,180.329376 208.216949,179.588165 204.599762,179.279221 
	C208.443588,173.275528 206.552841,167.060242 206.724304,161.047195 
	C206.769547,159.460464 205.973862,158.161789 203.978500,157.554443 
z"/>
<path fill="#000000" opacity="1.000000" stroke="none" 
	d="
M147.484528,197.229004 
	C153.447403,194.097794 158.161652,197.507782 163.005615,199.316467 
	C171.560257,202.510666 171.517212,202.625946 171.386551,211.643433 
	C171.226639,222.679916 170.895889,221.930206 160.760437,226.401688 
	C150.700943,230.839676 143.167755,224.852280 134.707718,222.341934 
	C133.240707,221.906616 133.294296,220.291702 133.338013,218.913528 
	C133.469620,214.766617 133.764374,210.609131 133.587265,206.473251 
	C133.448608,203.234970 134.736572,201.627121 137.742523,200.749878 
	C140.923065,199.821671 143.996490,198.526428 147.484528,197.229004 
M169.073242,219.515778 
	C169.581009,218.044327 170.008667,215.808456 168.324753,215.675201 
	C164.316666,215.358002 160.594803,214.168564 156.736115,212.116959 
	C156.710159,215.785324 159.194778,216.968918 160.160934,218.992096 
	C162.491699,223.872849 165.424286,223.104202 169.073242,219.515778 
M135.497604,217.307785 
	C137.281509,221.470596 140.954483,223.406540 143.199265,221.236923 
	C144.486664,219.992630 145.380981,218.342789 146.459518,216.880875 
	C147.385773,215.625366 149.474533,214.437073 148.043243,212.748169 
	C146.328613,210.724915 145.315506,212.949127 144.223633,214.038879 
	C143.050446,215.209793 141.507477,215.031906 140.028748,215.173676 
	C138.472015,215.322922 136.609482,214.674683 135.497604,217.307785 
M149.279877,204.130646 
	C150.290894,205.164032 150.902405,206.669830 152.878265,206.992355 
	C154.711105,205.157837 156.781189,203.343613 158.071976,200.592484 
	C155.609131,198.573990 153.196640,197.860428 150.200836,198.909973 
	C147.294510,199.928177 146.940674,201.368347 149.279877,204.130646 
M141.720673,209.547668 
	C142.431274,209.239258 144.317627,209.835846 143.456894,208.257614 
	C142.351089,206.230011 141.740402,203.240540 138.499786,203.416702 
	C136.815140,203.508255 135.942444,204.835464 135.620041,206.421951 
	C135.337158,207.813980 135.374741,209.233337 137.128784,209.532547 
	C138.417999,209.752457 139.772308,209.590790 141.720673,209.547668 
M162.757660,209.615417 
	C165.143066,209.259109 168.647369,210.988495 169.200760,206.988693 
	C169.641342,203.804260 166.807266,203.747833 163.933121,202.959213 
	C164.458771,205.776398 160.351990,206.498352 162.757660,209.615417 
M155.817154,223.236923 
	C154.913116,221.888733 154.303162,220.245850 152.349609,219.813782 
	C150.591522,220.779861 149.238541,222.096237 148.770432,224.379822 
	C151.423218,226.631775 153.897476,228.059143 155.817154,223.236923 
z"/>
<path fill="#000000" opacity="1.000000" stroke="none" 
	d="
M150.033997,165.830475 
	C147.237396,162.215759 147.540588,159.055176 150.590393,156.277832 
	C153.109131,153.984131 161.644867,153.116592 163.344330,155.127319 
	C165.355438,157.506760 164.763687,159.919510 162.537430,161.919739 
	C162.000381,161.744507 161.576935,161.739624 161.406311,161.529465 
	C160.097458,159.917435 159.289139,157.592270 156.450287,158.324493 
	C155.406311,158.593765 154.481689,159.100967 154.431747,160.216461 
	C154.309448,162.947205 156.764374,163.541763 158.445618,164.758179 
	C158.713135,164.951752 159.018387,165.093079 159.305740,165.259338 
	C165.302200,168.729019 167.152679,172.276520 164.972290,176.122299 
	C162.776794,179.994720 153.964142,182.108398 150.079163,179.310776 
	C146.991287,177.087143 148.416138,174.624268 150.668411,172.189896 
	C152.726685,173.824142 152.859451,177.569168 156.474564,176.811203 
	C158.010406,176.489212 159.476685,176.179596 160.101318,174.613190 
	C160.790604,172.884689 159.611893,171.803162 158.410461,170.863083 
	C155.920746,168.914902 152.557953,168.445389 150.033997,165.830475 
z"/>
<path fill="#000000" opacity="1.000000" stroke="none" 
	d="
M264.303772,169.864441 
	C267.047699,178.305450 269.715851,186.350769 272.314606,194.418442 
	C273.839630,199.152969 273.196991,200.116394 268.252502,200.142090 
	C258.424774,200.193176 248.595901,200.048553 238.768478,200.119492 
	C235.539276,200.142776 234.349640,198.815140 234.398560,195.628021 
	C234.574921,184.137985 234.745712,172.643478 234.590729,161.155075 
	C234.533859,156.939590 236.093201,155.548721 240.140305,155.729385 
	C245.293808,155.959427 250.468765,155.883270 255.628632,155.735428 
	C259.043945,155.637573 260.797119,156.949829 261.444885,160.411011 
	C262.022461,163.497086 263.255188,166.460556 264.303772,169.864441 
M261.619904,180.753448 
	C260.499634,177.276855 259.323547,173.817093 258.269592,170.320496 
	C255.163345,160.014877 256.563446,161.522720 245.647629,161.375107 
	C245.481461,161.372849 245.313721,161.392395 245.149185,161.376434 
	C242.014786,161.072052 240.388687,162.586166 240.363342,165.640259 
	C240.293015,174.115402 240.309875,182.591385 240.321594,191.066986 
	C240.323868,192.708633 240.980423,194.278000 242.729340,194.347137 
	C250.097855,194.638351 257.514557,195.355164 264.843658,193.579590 
	C264.871155,188.893448 262.977234,185.302017 261.619904,180.753448 
z"/>
<path fill="#000000" opacity="1.000000" stroke="none" 
	d="
M251.803589,252.852524 
	C251.809830,247.856766 254.083206,244.916595 258.439850,243.674576 
	C262.107819,242.628891 265.489960,243.381012 267.893982,246.403564 
	C270.358551,249.502213 270.746002,253.112457 268.919434,256.696075 
	C267.172760,260.123016 264.186279,261.932404 260.370178,261.549194 
	C255.493927,261.059509 252.575882,258.188110 251.803589,252.852524 
M264.313080,252.388718 
	C263.619446,249.270218 261.695465,248.899887 259.241211,250.304840 
	C257.580841,251.255341 256.909241,252.817200 258.554077,254.273773 
	C260.846588,256.303833 262.702942,255.276428 264.313080,252.388718 
z"/>
<path fill="#000000" opacity="1.000000" stroke="none" 
	d="
M169.479309,260.704468 
	C163.564957,262.175293 159.622589,260.969696 157.641617,256.848267 
	C155.783005,252.981369 155.961166,248.942215 159.228455,245.859589 
	C162.410934,242.856964 166.221222,242.540451 170.266541,244.481567 
	C175.057846,246.780670 177.103531,256.459015 169.479309,260.704468 
M168.390305,252.585159 
	C167.826630,250.445160 166.931854,248.631622 164.319260,250.098846 
	C162.729675,250.991608 161.832352,252.651901 163.252457,254.214767 
	C165.240540,256.402649 167.013474,255.493378 168.390305,252.585159 
z"/>
</svg>